<svg width="512" height="512" viewBox="0 0 512 512" fill="none" xmlns="http://www.w3.org/2000/svg">
    <rect width="512" height="512" rx="128" fill="#FF444F"/>
    <path d="M321.191 106.141L304.88 199.701H247.37C194.24 199.701 143.013 242.617 133.368 296.416L129.504 319.371C119.902 373.17 155.774 416.086 208.973 416.086H257.037C296.003 416.086 333.126 384.048 339.981 345.378L384 96.043L321.191 106.141ZM280.527 336.881C278.417 348.717 267.582 358.515 255.746 358.515H226.37C202.496 358.515 186.396 339.119 190.613 315.245L193.076 300.634C197.378 276.845 220.043 257.364 243.832 257.364H294.681L280.527 336.881Z" fill="white"/>
</svg>
