<svg width="192" height="192" viewBox="0 0 192 192" fill="none" xmlns="http://www.w3.org/2000/svg">
    <rect width="192" height="192" rx="48" fill="#FF444F"/>
    <path d="M120.446 39.7779L114.255 74.8877H92.7645C72.7152 74.8877 53.6049 91.1312 50.0629 111.181L48.5637 119.714C45.0382 139.764 58.4154 156.008 78.4648 156.008H96.3886C111.002 156.008 124.922 144.179 127.493 129.566L144 35.9915L120.446 39.7779ZM105.198 126.255C104.406 130.769 100.343 134.443 95.8289 134.443H84.9392C75.9278 134.443 69.8982 127.128 71.4796 118.1L72.4187 112.779C74.0166 103.767 82.6161 96.4362 91.6281 96.4362H110.455L105.198 126.255Z" fill="white"/>
</svg>
